<svg width="512" height="512" viewBox="0 0 512 512" fill="none" xmlns="http://www.w3.org/2000/svg">
<path d="M256.462 1.91992C115.357 1.91992 0.935547 118.271 0.935547 261.808C0.935547 376.636 74.1515 474.055 175.68 508.42C188.45 510.826 193.139 502.782 193.139 495.918C193.139 489.72 192.902 469.248 192.792 447.531C121.704 463.253 106.704 416.867 106.704 416.867C95.0801 386.827 78.3322 378.839 78.3322 378.839C55.1483 362.709 80.0797 363.04 80.0797 363.04C105.739 364.87 119.25 389.823 119.25 389.823C142.04 429.554 179.027 418.068 193.608 411.427C195.902 394.634 202.524 383.16 209.832 376.675C153.076 370.103 93.4129 347.818 93.4129 248.235C93.4129 219.86 103.395 196.676 119.741 178.476C117.088 171.925 108.341 145.496 122.216 109.698C122.216 109.698 143.674 102.713 192.504 136.338C212.887 130.58 234.746 127.692 256.462 127.593C278.177 127.692 300.054 130.58 320.474 136.338C369.246 102.713 390.673 109.698 390.673 109.698C404.582 145.496 395.831 171.925 393.178 178.476C409.562 196.676 419.477 219.86 419.477 248.235C419.477 348.055 359.699 370.034 302.8 376.468C311.965 384.533 320.132 400.349 320.132 424.597C320.132 459.366 319.835 487.353 319.835 495.918C319.835 502.834 324.435 510.938 337.387 508.386C438.861 473.982 511.983 376.597 511.983 261.808C511.983 118.271 397.579 1.91992 256.462 1.91992" fill="white"/>
<path d="M97.7164 375.065C97.1536 376.361 95.1564 376.744 93.3369 375.857C91.4835 375.009 90.4426 373.249 91.0434 371.954C91.5935 370.624 93.595 370.258 95.4441 371.14C97.3017 371.992 98.3595 373.77 97.7164 375.065" fill="white"/>
<path d="M108.066 386.806C106.847 387.955 104.465 387.421 102.848 385.605C101.177 383.793 100.864 381.37 102.1 380.204C103.356 379.055 105.667 379.593 107.342 381.405C109.014 383.238 109.339 385.644 108.066 386.806" fill="white"/>
<path d="M118.141 401.774C116.575 402.88 114.015 401.843 112.433 399.531C110.867 397.22 110.867 394.449 112.467 393.338C114.053 392.228 116.575 393.226 118.179 395.52C119.74 397.866 119.74 400.642 118.141 401.774" fill="white"/>
<path d="M131.944 416.234C130.543 417.805 127.56 417.383 125.377 415.24C123.142 413.144 122.52 410.17 123.925 408.599C125.343 407.024 128.343 407.467 130.543 409.593C132.76 411.685 133.437 414.68 131.944 416.234" fill="white"/>
<path d="M150.985 424.631C150.368 426.666 147.495 427.591 144.6 426.726C141.71 425.836 139.819 423.451 140.403 421.394C141.004 419.346 143.889 418.382 146.805 419.307C149.691 420.193 151.586 422.56 150.985 424.631" fill="white"/>
<path d="M171.897 426.189C171.968 428.332 169.514 430.109 166.476 430.144C163.421 430.217 160.95 428.482 160.916 426.374C160.916 424.209 163.315 422.449 166.37 422.397C169.408 422.337 171.897 424.058 171.897 426.189" fill="white"/>
<path d="M191.358 422.819C191.721 424.911 189.61 427.058 186.593 427.627C183.627 428.182 180.881 426.891 180.504 424.816C180.136 422.673 182.285 420.525 185.247 419.97C188.269 419.437 190.972 420.693 191.358 422.819" fill="white"/>
</svg>
