<svg width="100" height="100" viewBox="0 0 100 100" fill="none" xmlns="http://www.w3.org/2000/svg">
<path d="M0 50C0 22.3858 22.3858 0 50 0C77.6142 0 100 22.3858 100 50C100 77.6142 77.6142 100 50 100C22.3858 100 0 77.6142 0 50Z" fill="white"/>
<path d="M50.0001 36.7108C54.0686 36.7108 56.8131 38.4682 58.3779 39.9367L64.4927 33.9663C60.7371 30.4756 55.8501 28.333 50.0001 28.333C41.526 28.333 34.2075 33.196 30.6445 40.2737L37.6501 45.7145C39.4075 40.4904 44.2705 36.7108 50.0001 36.7108V36.7108Z" fill="#EA4335"/>
<path d="M70.8 50.4814C70.8 48.6999 70.6556 47.3999 70.3426 46.0518H50V54.0925H61.9407C61.7 56.0906 60.4 59.0999 57.5111 61.1221L64.3481 66.4184C68.4407 62.6388 70.8 57.0777 70.8 50.4814V50.4814Z" fill="#4285F4"/>
<path d="M37.6737 54.2845C37.2163 52.9364 36.9515 51.492 36.9515 49.9994C36.9515 48.5068 37.2163 47.0623 37.6497 45.7142L30.6441 40.2734C29.1756 43.2105 28.333 46.5086 28.333 49.9994C28.333 53.4901 29.1756 56.7883 30.6441 59.7253L37.6737 54.2845V54.2845Z" fill="#FBBC05"/>
<path d="M49.9995 71.6666C55.8495 71.6666 60.7606 69.7407 64.3476 66.4185L57.5106 61.1222C55.6809 62.3981 53.2254 63.2889 49.9995 63.2889C44.2698 63.2889 39.4069 59.5092 37.6735 54.2852L30.668 59.7259C34.2309 66.8037 41.5254 71.6666 49.9995 71.6666V71.6666Z" fill="#34A853"/>
</svg>
