<svg width="512" height="512" viewBox="0 0 512 512" fill="none" xmlns="http://www.w3.org/2000/svg">
<path d="M0 256C0 114.615 114.615 0 256 0C397.385 0 512 114.615 512 256C512 397.385 397.385 512 256 512C114.615 512 0 397.385 0 256Z" fill="#0077B5"/>
<path fill-rule="evenodd" clip-rule="evenodd" d="M184.734 158.109C184.734 174.846 172.135 188.238 151.906 188.238H151.535C132.058 188.238 119.467 174.846 119.467 158.109C119.467 141.018 132.442 128 152.288 128C172.135 128 184.357 141.018 184.734 158.109ZM180.913 212.03V386.342H122.897V212.03H180.913ZM390.135 386.342L390.138 286.397C390.138 232.856 361.517 207.937 323.34 207.937C292.538 207.937 278.747 224.856 271.047 236.725V212.035H213.025C213.79 228.392 213.025 386.347 213.025 386.347H271.047V288.997C271.047 283.787 271.424 278.59 272.958 274.86C277.151 264.453 286.698 253.677 302.725 253.677C323.727 253.677 332.122 269.661 332.122 293.085V386.342H390.135Z" fill="white"/>
</svg>
