<?xml version="1.0" standalone="no"?>
<svg version="1.1" id="Layer_1" xmlns="http://www.w3.org/2000/svg" xmlns:xlink="http://www.w3.org/1999/xlink" x="0px" y="0px" width="595.279px" height="595.279px" viewBox="0 0.001 595.279 595.279" enable-background="new 0 0.001 595.279 595.279" xml:space="preserve">
<path id="color_x5F_5" fill="#FFD2BB" d="M340.655,154.457c-0.031,0.029-0.061,0.05-0.104,0.071c-3.023,2.2-6.268,3.589-9.357,4.055
	c-1.641,0.259-3.232,0.256-4.727-0.021c0.887-0.284,1.723-0.724,2.465-1.295c0.781-0.591,1.451-1.342,1.98-2.224
	c1.217-2.017,1.215-4.558-0.652-6.15c-2.506-2.13-6.389-1.451-8.611,0.694c-1.166,1.122-1.936,2.6-2.352,4.189
	c-2.33-3.681-2.609-8.872-0.912-14.182c1.164-0.496-10.852,0.568-11.808,0.683l-0.141,0.018c-0.913,3.128-1.24,6.568-0.81,10.128
	c0.029,0.256,0.059,0.512,0.082,0.766c-0.243,0.361-0.463,0.75-0.641,1.171c-1.217,2.892-3.563,5.171-1.121,6.198
	c0.545,0.228,1.294,0.37,2.127,0.427c0.104,8.656-0.078,15.499,7.699,14.558c2.439-0.295,5.445-1.335,8.584-2.903l2.238,12.333
	c4.568-5.214,11.396-8.167,20.455-8.167c1.928,0,3.683,0.175,5.297,0.494l-8.91-21.477
	C341.175,154.03,340.921,154.262,340.655,154.457z M311.161,152.705c-0.67,0.073-1.287-0.751-1.396-1.833
	c-0.107-1.085,0.354-2.023,1.018-2.094c0.67-0.072,1.289,0.749,1.395,1.832C312.28,151.695,311.821,152.633,311.161,152.705z
	 M164.113,380.419h3.157v16.744V414.2h-7.288h-49.064v-33.781h5.34h11.963h8.904h0.821h2.71h7.08h5.489h6.515h0.034H164.113z
	 M475.162,347.116V414.2h-5.845H418.81v-1.29V392.5v-45.384h1.551h12.697h0.502h5.956h5.321h2.703h7.425h2.726h0.307h0.944h3.641
	h11.797H475.162z M257.69,196.425c0.722,1.238,1.142,2.672,1.142,4.208c0,0.95-0.166,1.86-0.457,2.711
	c-1.071,3.127-3.935,5.414-7.368,5.638c-0.184,0.012-0.366,0.028-0.552,0.028c-4.626,0-8.377-3.75-8.377-8.377
	c0-1.752,0.54-3.377,1.459-4.722c1.262-1.845,3.244-3.151,5.539-3.532c0.45-0.075,0.908-0.123,1.379-0.123
	C253.546,192.257,256.239,193.935,257.69,196.425z"></path>
<path id="color_x5F_2" fill="#30aba2" d="M293.052,129.504c-0.815-6.748,3.913-12.88,10.572-13.684
	c4.921-0.595,9.189,2.21,15.025,1.531c1.332-0.162,2.355-0.302,3.148-0.433c4.063-0.667,2.357-1.054,7.008-1.615
	c0.232-0.029,0.467-0.058,0.689-0.076l0.068-0.008c17.98-0.635,21.049,10.761,21.422,18.515c0.293,6.057-2.711,12.743-4.629,15.182
	c-0.521,0.654-1.053,1.283-1.605,1.883c-1.047,1.131-2.166,2.119-3.313,3.022c-0.264,0.208-0.518,0.44-0.783,0.635
	c-0.031,0.029-0.061,0.05-0.104,0.071c-3.023,2.2-6.268,3.589-9.357,4.055c-1.641,0.259-3.232,0.256-4.727-0.021
	c0.887-0.284,1.723-0.724,2.465-1.295c0.781-0.591,1.451-1.342,1.98-2.224c1.217-2.017,1.215-4.558-0.652-6.15
	c-2.506-2.13-6.389-1.451-8.611,0.694c-1.166,1.122-1.936,2.6-2.352,4.189c-2.33-3.681-2.609-8.872-0.912-14.182
	c1.164-0.496-10.852,0.568-11.808,0.683l-0.141,0.018l-0.009,0.001C299.827,141.008,293.862,136.209,293.052,129.504z
	 M310.782,148.778c-0.664,0.071-1.125,1.009-1.018,2.094c0.109,1.082,0.727,1.906,1.396,1.833c0.66-0.072,1.119-1.01,1.016-2.096
	C312.071,149.527,311.452,148.705,310.782,148.778z M243.724,295.492c7.341-4.036,18.508-10.479,24.775-15.589
	c5.013-4.087,12.292-10.068,17.501-15.901c10.917,13.738,29.389,33.483,35.982,38.036c1.656,1.144,3.387,2.055,5.146,2.787
	c3.951,2.759,8.755,4.382,13.939,4.382c13.469,0,23.732-2.705,23.429-27.971c-0.05-4.132-1.03-8.021-2.844-11.43h-14.482
	c-1.205-1.221-2.547-2.36-4.029-3.384c-3.103-2.142-11.521-7.026-21.506-11.81c-9.86-4.723-21.24-9.338-30.553-11.128
	c7.996-2.582,19.362-8.63,29.519-14.744c9.528-5.736,17.992-11.529,21.604-14.57c9.762-8.218,12.879-20.575,6.961-27.6
	c-5.886-6.993-18.501-6.063-28.244,2.048c-0.046,0.039-0.095,0.071-0.141,0.11c-2.944,2.479-8.24,7.826-14.038,14.275
	c-4.445-3.217-9.875-6.852-14.954-9.8c-0.117-0.064-2.586-1.375-7.785-1.596c-1.822-0.077-4.587,1.181-7.114,2.615
	c3.046,6.746,10.812,17.111,16.844,24.276c-1.489,1.919-2.915,3.823-4.241,5.677c-0.257-0.267-0.513-0.535-0.789-0.793
	c-4.353-4.069-20.108-15.409-30.329-20.039c-1.071,3.127-3.935,5.414-7.368,5.638c4.79,9.807,18.209,26.085,22.781,30.359
	c1.805,1.687,3.801,2.958,5.822,3.814c-1.446,0.337-2.726,0.857-3.761,1.631c-7.491,5.601-25.134,32.309-34.021,46.171
	l-36.854,15.515h39.491L243.724,295.492z M469.317,414.2H418.81h-11.548H167.269h-7.288h-49.064h-5.114
	c-0.025,0-0.014,17.037,0,17.037h357.811c18.549,0,33.586,15.876,33.586,35.46s-15.037,35.46-33.586,35.46H105.803
	c-0.004,0-0.007-0.515-0.01-1.438c0.005,10.978,0.01,18.47,0.01,18.47c0.066,0,0.13,0.005,0.196,0.005h363.317
	c27.461,0,49.723-23.504,49.723-52.497S496.778,414.2,469.317,414.2z M137.126,380.419h0.821
	c-0.922-6.773-0.795-13.674-0.316-20.491c0.583-8.287,1.21-16.757,4.173-24.592c0.604-1.599,3.191-0.906,2.581,0.709
	c-1.215,3.212-2.031,6.539-2.623,9.918c-0.527,3.575-0.94,7.164-1.248,10.766c-0.076,1.068-0.145,2.136-0.21,3.199
	c-0.407,6.845-0.601,13.716,0.353,20.491h7.08c0.026-2.501,0.231-7.457,1.233-15.033c1.514-11.462,4.542-19.255,4.238-30.718
	c-0.302-11.462-14.232-11.003-20.588,0c-6.36,11.004,0,44.932,0,44.932L137.126,380.419z M128.221,380.419
	c-2.361-2.421-4.742-4.82-7.142-7.198c-1.574-1.199-3.164-2.387-4.667-3.679c-5.625-4.845-11.375-9.521-16.552-14.855
	c-1.202-1.238,0.688-3.132,1.891-1.893c5.464,5.633,11.496,10.962,17.693,15.778c3.075,2.388,6.295,4.646,8.998,7.394
	c-1.018-4.209-1.824-8.46-2.26-12.767c-5.904-7.085-12.863-14.074-18.449-15.729c-12.186-3.607-22.608,5.645-14.941,14.171
	c7.454,8.284,14.81,11.903,23.466,18.778H128.221z M150.53,379.478c2.831-3.313,5.975-6.306,9.209-9.224
	c0.012-0.01,0.023-0.021,0.035-0.031c1.42-1.281,2.856-2.549,4.292-3.82c5.153-4.561,9.817-9.607,15.481-13.561
	c1.418-0.99,2.755,1.33,1.349,2.311c-5.89,4.11-10.896,9.442-16.23,14.229c-1.64,1.471-3.278,2.943-4.892,4.438
	c-0.012,0.011-0.023,0.021-0.035,0.032c-2.265,2.1-4.475,4.252-6.514,6.565h6.515h0.034h4.338
	c8.407-6.584,15.604-10.231,22.891-18.331c7.667-8.526-2.753-17.778-14.939-14.17c-3.518,1.042-7.987,4.199-12.289,8.163
	c-0.011,0.01-0.021,0.021-0.032,0.03c-2.52,2.324-4.981,4.923-7.159,7.536C152.041,369.002,151.763,374.267,150.53,379.478z
	 M439.516,347.116c-0.745-4.391-2.767-17.463-2.534-28.684c0.123-5.954,0.879-11.389,2.804-14.72
	c6.355-11.003,20.285-11.462,20.588,0c0.304,11.463-2.725,19.256-4.238,30.718c-0.313,2.368-0.549,4.48-0.725,6.342
	c0.892,2.05,1.652,4.168,2.28,6.344h-2.726h-7.425h-2.703H439.516z M445.067,325.298c0.852,0.884,1.677,1.793,2.464,2.734
	c0.049-0.753,0.096-1.505,0.149-2.259c0.307-3.602,0.721-7.19,1.247-10.766c0.591-3.379,1.407-6.706,2.622-9.918
	c0.611-1.615-1.976-2.308-2.58-0.709C446.443,311.06,445.618,318.202,445.067,325.298z M399.958,330.685
	c6.559,7.289,13.043,10.969,20.403,16.431h12.697c-1.6-1.622-3.195-3.248-4.813-4.851c-1.574-1.199-3.164-2.387-4.667-3.679
	c-4.221-3.637-8.514-7.178-12.581-10.974c2.427,0.693,4.75,1.634,6.934,2.802c2.829,2.499,5.732,4.912,8.679,7.202
	c0.655,0.509,1.318,1.011,1.98,1.514c2.444,1.858,4.891,3.718,7.018,5.88c-1.018-4.209-1.824-8.46-2.26-12.767
	c-5.904-7.085-12.863-14.074-18.449-15.729c-10.066-2.98-18.918,2.816-17.375,9.729
	C397.849,327.698,398.625,329.202,399.958,330.685z M457.998,347.116h0.944c3.787-4.189,8.041-7.906,12.291-11.668
	c5.152-4.561,9.817-9.607,15.48-13.561c1.419-0.99,2.756,1.33,1.35,2.311c-5.89,4.11-10.896,9.442-16.23,14.229
	c-3.153,2.829-6.315,5.649-9.25,8.688h11.797c7.107-5.219,13.414-8.897,19.789-15.983c7.667-8.526-2.753-17.778-14.939-14.17
	c-5.587,1.654-13.577,8.645-19.479,15.729C459.256,337.565,458.972,342.364,457.998,347.116z M276.221,148.999l-7.146,1.769
	c-4.286,1.061-11.032,3.939-14.259,5.368c-1.415-2.519-4.746-6.759-12.012-9.589c-10.643-4.144-18.741,0.295-19.081,0.486
	l0.981,1.743l18.833,47.136c1.262-1.845,3.244-3.151,5.539-3.532l-17.807-43.453c2.686-0.32,6.171-0.176,10.083,1.347
	c8.72,3.396,10.488,8.839,10.554,9.05l0.643,2.242l2.118-0.976c0.1-0.046,10.06-4.625,15.37-5.939l3.965-0.981l16.633,35.285
	c-2.506,0.153-6.237,0.51-10.1,1.348c-2.574,0.558-7.445,3.822-9.782,5.465c-2.361-1.383-7.563-4.03-11.346-3.045
	c-1.554,0.406-2.762,1.369-3.493,2.786l3.555,1.834c0.209-0.406,0.493-0.63,0.946-0.749c2.17-0.567,6.756,1.555,9.317,3.243
	l1.159,0.764l1.121-0.816c2.875-2.094,7.682-5.207,9.371-5.573c6.23-1.351,12.292-1.371,12.353-1.371l3.152-0.002L276.221,148.999z"></path>
<path id="color_x5F_1" fill="#356a91" d="M150.131,243.282c-1.104,0-2-0.896-2-2v-12.446c0-1.104,0.896-2,2-2s2,0.896,2,2v12.446
	C152.131,242.387,151.235,243.282,150.131,243.282z M152.131,286.395v-12.446c0-1.104-0.896-2-2-2s-2,0.896-2,2v12.446
	c0,1.104,0.896,2,2,2S152.131,287.5,152.131,286.395z M135.797,257.616c0-1.104-0.896-2-2-2h-12.445c-1.104,0-2,0.896-2,2
	s0.896,2,2,2h12.445C134.901,259.616,135.797,258.72,135.797,257.616z M180.91,257.616c0-1.104-0.896-2-2-2h-12.445
	c-1.104,0-2,0.896-2,2s0.896,2,2,2h12.445C180.014,259.616,180.91,258.72,180.91,257.616z M139.995,247.48
	c0.781-0.781,0.781-2.047,0-2.828l-8.801-8.8c-0.781-0.781-2.048-0.781-2.828,0c-0.781,0.781-0.781,2.047,0,2.828l8.801,8.8
	c0.391,0.391,0.902,0.586,1.414,0.586S139.605,247.871,139.995,247.48z M171.895,279.38c0.781-0.781,0.781-2.047,0-2.828l-8.801-8.8
	c-0.781-0.781-2.048-0.781-2.828,0c-0.781,0.781-0.781,2.047,0,2.828l8.801,8.8c0.391,0.391,0.902,0.586,1.414,0.586
	S171.505,279.77,171.895,279.38z M131.194,279.38l8.801-8.8c0.781-0.781,0.781-2.047,0-2.828c-0.78-0.781-2.047-0.781-2.828,0
	l-8.801,8.8c-0.781,0.781-0.781,2.047,0,2.828c0.39,0.391,0.902,0.586,1.414,0.586S130.803,279.77,131.194,279.38z M163.094,247.48
	l8.801-8.8c0.781-0.781,0.781-2.047,0-2.828c-0.78-0.781-2.048-0.781-2.828,0l-8.801,8.8c-0.781,0.781-0.781,2.047,0,2.828
	c0.39,0.391,0.902,0.586,1.414,0.586S162.704,247.871,163.094,247.48z M459.696,220.526v-11.28c0-1.104-0.896-2-2-2s-2,0.896-2,2
	v11.28c0,1.104,0.896,2,2,2S459.696,221.63,459.696,220.526z M459.696,261.413v-11.28c0-1.104-0.896-2-2-2s-2,0.896-2,2v11.28
	c0,1.104,0.896,2,2,2S459.696,262.517,459.696,261.413z M444.892,235.329c0-1.104-0.896-2-2-2h-11.279c-1.104,0-2,0.896-2,2
	s0.896,2,2,2h11.279C443.997,237.329,444.892,236.434,444.892,235.329z M485.779,235.329c0-1.104-0.896-2-2-2h-11.278
	c-1.104,0-2,0.896-2,2s0.896,2,2,2h11.278C484.884,237.329,485.779,236.434,485.779,235.329z M448.642,226.276
	c0.781-0.781,0.781-2.047,0-2.828l-7.977-7.976c-0.781-0.781-2.047-0.781-2.828,0c-0.781,0.781-0.781,2.047,0,2.828l7.977,7.976
	c0.391,0.391,0.902,0.586,1.414,0.586S448.252,226.666,448.642,226.276z M477.554,255.187c0.781-0.781,0.781-2.047,0-2.828
	l-7.977-7.977c-0.781-0.781-2.047-0.781-2.828,0c-0.781,0.781-0.781,2.047,0,2.828l7.977,7.977c0.391,0.391,0.902,0.586,1.414,0.586
	S477.164,255.578,477.554,255.187z M440.666,255.187l7.977-7.976c0.781-0.781,0.781-2.047,0-2.828s-2.047-0.781-2.828,0
	l-7.977,7.976c-0.781,0.781-0.781,2.047,0,2.828c0.391,0.391,0.902,0.586,1.414,0.586S440.275,255.578,440.666,255.187z
	 M469.578,226.275l7.977-7.976c0.781-0.781,0.781-2.047,0-2.828s-2.047-0.781-2.828,0l-7.977,7.976
	c-0.781,0.781-0.781,2.047,0,2.828c0.391,0.391,0.902,0.586,1.414,0.586S469.187,226.666,469.578,226.275z M414.899,316.514
	c5.586,1.655,12.545,8.645,18.449,15.729c0.436,4.307,1.242,8.558,2.26,12.767c-2.127-2.162-4.573-4.021-7.018-5.88
	c1.993,2.413,3.665,5.099,4.97,7.985h5.956c-0.745-4.391-2.767-17.463-2.534-28.684c-8.451-5.815-18.686-9.227-29.72-9.227h-66.194
	H159.982c-0.069,0-0.138,0.005-0.207,0.005v17.032h237.75C395.981,319.331,404.833,313.534,414.899,316.514z M418.81,392.5
	c-5.181,2.962-11.175,4.663-17.569,4.663H167.269V414.2h239.993c3.97,0,7.83-0.455,11.548-1.29V392.5z M350.348,175.299
	c-1.614-0.318-3.369-0.494-5.297-0.494c-9.059,0-15.887,2.953-20.455,8.167c-1.454,1.66-2.679,3.55-3.674,5.646
	c9.743-8.11,22.358-9.041,28.244-2.048c5.918,7.025,2.801,19.382-6.961,27.6c-3.612,3.041-12.076,8.834-21.604,14.57l1.382,11.418
	c0,3.09-0.253,8.797-0.348,14.453c9.985,4.784,18.403,9.668,21.506,11.81c1.482,1.024,2.824,2.163,4.029,3.384h14.482h0.43
	c2.307-5.674,4.83-25.939,4.83-33.86v-28.279C366.913,191.445,363.937,177.978,350.348,175.299z"></path>
</svg>